<?xml version="1.0" encoding="utf-8"?>
<!-- Generator: Adobe Illustrator 23.0.0, SVG Export Plug-In . SVG Version: 6.00 Build 0)  -->
<svg version="1.1" id="Layer_1" xmlns="http://www.w3.org/2000/svg" xmlns:xlink="http://www.w3.org/1999/xlink" x="0px" y="0px"
	 viewBox="0 0 841.89 595.28" style="enable-background:new 0 0 841.89 595.28;" xml:space="preserve">
<style type="text/css">
	.st0{clip-path:url(#SVGID_2_);fill:#C6C6C5;}
	.st1{fill:#0E3243;}
	.st2{fill:#ED1C24;}
	.st3{fill:#F89938;}
	.st4{clip-path:url(#SVGID_4_);fill:#C6C6C5;}
	.st5{clip-path:url(#SVGID_6_);fill:#C6C6C5;}
</style>
<g>
	<g>
		<g>
			<g>
				<defs>
					<path id="SVGID_3_" d="M420.95,142.33c-85.77,0-155.31,69.53-155.31,155.31s69.53,155.31,155.31,155.31
						s155.31-69.53,155.31-155.31S506.72,142.33,420.95,142.33z M420.95,398.24c-55.56,0-100.6-45.04-100.6-100.6
						c0-55.56,45.04-100.6,100.6-100.6c55.56,0,100.6,45.04,100.6,100.6C521.55,353.2,476.51,398.24,420.95,398.24z"/>
				</defs>
				<clipPath id="SVGID_2_">
					<use xlink:href="#SVGID_3_"  style="overflow:visible;"/>
				</clipPath>
				<path class="st0" d="M473.34,290.24c4.52,0,9.05,0,14.49,0c0,5.63,0,10.63,0,16.16c5.28,0,9.65,0,15.21,0
					c0-10.37,0-20.6,0-30.84l-0.28,0.28c4.55,0,9.1,0,14.34,0c0.32-5.03,0.59-9.46,0.9-14.35c4.51,0,8.68,0,13.82,0
					c0,4.22,0,8.62,0,13.62c5.96,0,10.97,0,16.63,0c0.23-4.25,0.46-8.44,0.72-13.37c4.33,0,8.72,0,14.18,0c0,9.38,0,19.07,0,28.75
					l0.28-0.28c-14.94,0-29.87,0-45.45,0c0,5.63,0,10.62,0,16.26c4.36,0.31,8.77,0.62,13.78,0.97c0,4.5,0,8.68,0,13.82
					c5.62,0,10.63,0,16.7,0c0,10.6,0,20.26,0,29.93l0.29-0.27c-5.38,0-10.75,0-16.34,0c-0.32,5.58-0.56,9.98-0.83,14.71
					c-5.29,0-9.82,0-14.35,0l0.29,0.27c0-14.33,0-28.65,0-43.64c-9.87,0-19.15,0-29.74,0c0,4.68,0,9.45,0,14.22l0.29-0.27
					c-4.68,0-9.35,0-14.98,0c0,5.62,0,10.3,0,14.97l0.27-0.27c-9.89,0-19.79,0-29.68,0l0.27,0.27c0-9.68,0-19.35,0-29.68
					c-15.68,0-30.04,0-44.39,0l0.29,0.27c0-10.06,0-20.11,0-30.81c4.82-0.34,9.24-0.66,14.24-1.02c0.2-4.45,0.39-8.64,0.63-13.8
					c4.42,0,8.82,0,13.9,0c0.34-5.34,0.61-9.76,0.92-14.65c4.5,0,8.68,0,13.82,0c0,4.21,0,8.61,0,13.61c5.35,0,9.75,0,14.78,0
					c0.23-4.25,0.47-8.43,0.74-13.36c4.33,0,8.71,0,14.51,0c0,9.39,0,19.07,0,28.75c-4.76,0-9.52,0-14.29,0c0,10.89,0,20.77,0,30.5
					c4.99,0,9.36,0,14.04,0C473.34,310.3,473.34,300.27,473.34,290.24z M429.46,306.4c5.21,0,9.6,0,13.96,0c0-5.6,0-10.61,0-15.31
					c-5.08,0-9.46,0-13.96,0C429.46,296.39,429.46,300.96,429.46,306.4z M474.82,144.38c34.29,0,67.84,0,101.98,0
					c0,34.06,0,67.59,0,101.57c-34.05,0-67.65,0-101.98,0C474.82,212.32,474.82,178.82,474.82,144.38z M562.84,158.93
					c-24.7,0-48.91,0-73.31,0c0,24.47,0,48.21,0,72.11c24.75,0,48.98,0,73.31,0C562.84,206.57,562.84,182.85,562.84,158.93z
					 M267.64,245.92c0-34.38,0-67.67,0-101.52c34,0,67.5,0,101.6,0c0,34.04,0,67.54,0,101.52
					C335.25,245.92,301.73,245.92,267.64,245.92z M355.28,158.65c-24.77,0-48.8,0-73.43,0c0,24.29,0,48.29,0,72.37
					c24.7,0,48.93,0,73.43,0C355.28,206.74,355.28,183.24,355.28,158.65z M267.83,351.23c34.01,0,67.32,0,101.32,0
					c0,33.8,0,67.3,0,101.52c-33.66,0-67.14,0-101.32,0C267.83,419.15,267.83,385.66,267.83,351.23z M355.3,365.98
					c-24.89,0-48.92,0-73.47,0c0,24.36,0,48.36,0,72.39c24.84,0,49.08,0,73.47,0C355.3,414.13,355.3,390.63,355.3,365.98z
					 M370.59,290.57c-14.78,0-29.55-0.01-44.33-0.01l0.28-0.28c0,5.36,0,10.73,0,16.31c-5.62,0.32-10.02,0.57-14.72,0.83
					c0,5.28,0,9.8,0,14.32l-0.28-0.28c4.76,0,9.52,0,14.46,0c0.33,5.68,0.59,10.07,0.9,15.34c19.89,0,38.94,0,58.59,0
					c0,10,0,19.06,0,28.38c5.02,0,9.39,0,14.02,0c0.3-4.93,0.56-9.32,0.86-14.28c10.24,0,19.66,0,29.08,0l-0.27,0.29
					c0-4.54,0-9.07,0-14.54c-9.63,0-18.92,0-29.42,0c0-5.63,0-10.39,0-15.15c0,0,0.29,0.27,0.29,0.27c-19.42,0-38.83,0-58.48,0
					c0-5.44,0-9.81,0-15.12c9.81,0,19.09,0,28.74,0c0-6.08,0-11.23,0-16.37L370.59,290.57z M414.77,187.55c0-4.56,0-9.12,0-14.65
					c-9.9,0-19.22,0-29.03,0c0-5.12,0-9.28,0-14.45c9.05,0,18.37,0,28.34,0c0.36-5.32,0.65-9.74,0.98-14.62c14.26,0,28.22,0,42.92,0
					c0,23.8,0,47.76,0,72.85c-4.56,0-9.32,0-14.08,0l0.27,0.29c0-9.68,0-19.35,0-29.68c-10.78,0-20.23,0-29.68,0L414.77,187.55z
					 M443.65,158.46c-5.25,0-9.43,0-13.79,0c0,4.9,0,9.3,0,13.63c5,0,9.39,0,13.79,0C443.65,167.25,443.65,163.07,443.65,158.46z
					 M473.34,424c-4.66,0-9.03,0-14.04,0c0-4.27,0-8.64,0-13.99c4.77,0,9.53,0,14.29,0c-0.1-14.79-0.2-29.58-0.3-44.37l0.29,0.27
					c-4.54,0-9.07,0-14.54,0c0,9.63,0,18.92,0,29.42c-5.63,0-10.39,0-15.15,0l0.29-0.27c0,19.48,0,38.96,0,58.21
					c5.48,0,9.86,0,14.22,0c0.25-4.91,0.47-9.1,0.69-13.4c5.03,0,9.43,0,14.78,0c0,4.99,0,9.39,0,13.64c5.16,0,9.34,0,13.82,0
					c0.32-4.88,0.61-9.3,0.97-14.63c5.04,0,9.44,0,13.67,0c0-5.15,0-9.32,0-13.83c-4.89-0.31-9.31-0.59-14.35-0.91
					c0-5.23,0-9.78,0-14.33l0.28,0.28c-4.97-0.11-9.95-0.22-14.92-0.32C473.34,414.29,473.34,418.83,473.34,424z M443.9,395.32
					c0-4.53,0-9.06,0-14.35c-4.73-0.27-9.13-0.52-14.71-0.83c0-4.99,0-9.75,0-14.5l0.27,0.29c-4.78,0-9.55,0-14.93,0
					c0,5.27,0,9.45,0,14.61c-9.92,0-19.25,0-28.68,0c0,25,0,48.99,0,73.03c4.79,0,8.96,0,14.1,0c0-19.52,0-38.64,0-57.81
					c5.4,0,9.79,0,15.15,0c0,5.01,0,9.42,0,13.59c5.16,0,9.34,0,13.83,0c0.29-4.91,0.56-9.33,0.85-14.3c5.3,0,9.86,0,14.42,0
					L443.9,395.32z M326.26,290.55c0-4.78,0-9.55,0-15.27c5.6,0,10,0,14.31,0c0-5.13,0-9.3,0-13.74c-25.06,0-49.64,0-74.18,0
					c0,4.95,0,9.33,0,14.34c4.85,0,9.03,0,13.58,0c0.34,5.02,0.64,9.44,0.93,13.81c5.01,0,9.39,0,14.39,0c0-4.84,0-9.01,0-13.53
					c5.66,0,10.67,0,16.01,0c0.3,4.9,0.56,9.32,0.85,14.12c5.28,0,9.83,0,14.38,0C326.54,290.28,326.26,290.55,326.26,290.55z
					 M563.68,395.32c-4.54,0-9.08,0-14.41,0c-0.28-4.91-0.53-9.32-0.83-14.71c-10.48,0-20.74,0-30.99,0l0.29-0.27
					c0,9.61,0,19.22,0,29.07c5.26,0.35,9.65,0.64,14.24,0.94c0.28,5.01,0.53,9.4,0.8,14.08c5.91,0,11.03,0,16.15,0l-0.28,0.28
					c0-4.75,0-9.5,0-14.47c5.64-0.32,10.04-0.56,14.73-0.83c0-5.31,0-9.83,0-14.36L563.68,395.32z M548.93,424.44
					c0,4.78,0,9.56,0,15.26c-11.14,0-21.09,0-30.84,0c0,5.17,0,9.33,0,13.7c15.29,0,30.1,0,45.06,0c0.3-5.01,0.56-9.43,0.86-14.43
					c5.09,0,9.27,0,13.59,0c0-5.03,0-9.41,0-14.26c-10.06,0-19.5,0-28.95,0C548.65,424.72,548.93,424.44,548.93,424.44z
					 M370.32,290.29c4.76,0,9.52,0,14.48,0c0.31-5.46,0.55-9.86,0.8-14.23c5.25-0.35,9.65-0.65,14.43-0.97
					c-0.24-5.46-0.44-10-0.64-14.54c0,0,0.31,0.27,0.3,0.26c-14.54-0.01-29.07-0.01-43.35-0.01c0,5.83,0,10,0,14.49
					c4.92,0.29,9.34,0.54,14.26,0.83c0,5.33,0,9.89,0,14.45C370.59,290.57,370.31,290.29,370.32,290.29z M399.77,216.71
					c4.55,0,9.1,0,14.71,0c0-10.07,0-19.74,0-29.42l0.29,0.27c-9.62,0-19.23,0-28.95,0c0,5.29,0,9.65,0,14.21
					c4.97,0.28,9.36,0.52,14.24,0.79c0,5.36,0,9.89,0,14.42L399.77,216.71z M311.82,321.74c-10.23,0-20.47,0-30.78,0
					c0,5.33,0,9.67,0,13.95c10.47,0,20.33,0,30.51,0c0-5.16,0-9.7,0-14.23C311.54,321.46,311.82,321.74,311.82,321.74z
					 M563.68,365.64c0,9.89,0,19.79,0,29.68c0,0-0.29-0.27-0.29-0.27c4.74,0,9.49,0,14.23,0c0-10.3,0-19.56,0-29.13
					c-5.14,0-9.67,0-14.2,0L563.68,365.64z M399.77,246.39c0-9.89,0-19.79,0-29.68c0,0,0.29,0.27,0.29,0.27c-4.75,0-9.49,0-14.23,0
					c0,10.3,0,19.56,0,29.13c5.14,0,9.67,0,14.2,0L399.77,246.39z M563.64,290.22c0,5.35,0,10.7,0,16.08c5.35,0,9.7,0,13.92,0
					c0-5.58,0-10.54,0-15.81c-5.17,0-9.69,0-14.2,0C563.36,290.49,563.64,290.22,563.64,290.22z M488.29,336.22
					c0,4.99,0,9.98,0,14.97l-0.27-0.29c4.74,0,9.49,0,14.17,0c0-5.37,0-9.73,0-14.42c-5.15,0-9.67,0-14.2,0L488.29,336.22z
					 M429.19,365.64c4.54,0,9.08,0,14.71,0c0-5.17,0-9.94,0-14.71l0.27,0.27c-4.99,0-9.98,0-14.97,0l0.27-0.29
					c0,5.01,0,10.02,0,15.03L429.19,365.64z M488.29,351.19c-4.99,0-9.98,0-14.98,0l0.27-0.27c0,4.99,0,9.98,0,14.97
					c0,0-0.29-0.27-0.29-0.27c4.78,0,9.56,0,14.73,0c0-5.63,0-10.18,0-14.73L488.29,351.19z M548.97,350.93c0,4.54,0,9.08,0,14.71
					c5.17,0,9.94,0,14.71,0l-0.27,0.29c0-4.78,0-9.56,0-14.73c-5.63,0-10.18,0-14.73,0L548.97,350.93z M517.44,380.61
					c0-4.99,0-9.98,0-14.97c0,0,0.29,0.27,0.29,0.27c-4.75,0-9.5,0-14.2,0c0,5.39,0,9.75,0,14.44c5.15,0,9.68,0,14.2,0
					L517.44,380.61z M444.16,216.97c-4.54,0-9.08,0-14.71,0c0,5.17,0,9.94,0,14.71l-0.27-0.29c4.98,0,9.96-0.01,14.94-0.01
					l-0.28,0.28c0.02-4.99,0.03-9.98,0.05-14.98L444.16,216.97z M429.45,231.68c-4.54,0-9.08,0-14.71,0c0,5.17,0,9.94,0,14.71
					l-0.27-0.29c4.77,0,9.55,0,14.71,0c0-5.61,0-10.16,0-14.71L429.45,231.68z M444.13,231.38c0,4.74,0,9.48,0,14.25
					c5.36,0,9.71,0,13.92,0c0-4.97,0-9.31,0-13.97c-5.17,0-9.68,0-14.2,0C443.85,231.66,444.13,231.38,444.13,231.38z M487.99,409.8
					c4.74,0,9.48,0,14.25,0c0-5.36,0-9.71,0-13.92c-4.96,0-9.31,0-13.97,0c0,5.17,0,9.68,0,14.2
					C488.27,410.08,487.99,409.8,487.99,409.8z M414.74,246.39c-4.99,0-9.98,0-14.97,0l0.27-0.29c-0.12,4.9-0.24,9.8-0.35,14.71
					c0.01,0.01-0.3-0.26-0.29-0.25c4.96,0.01,9.91,0.01,15.09,0.01c0-5.49,0-9.98,0-14.47L414.74,246.39z M415.25,438.6
					c4.99,0,9.34,0,13.59,0c0-4.84,0-8.98,0-13.53c-4.58,0-8.72,0-13.59,0C415.25,430.07,415.25,434.43,415.25,438.6z
					 M502.77,275.85c0-4.74,0-9.48,0-14.25c-5.36,0-9.71,0-13.92,0c0,4.97,0,9.31,0,13.97c5.17,0,9.68,0,14.2,0
					C503.05,275.57,502.77,275.85,502.77,275.85z M503.93,216.69c14.78,0,28.97,0,43.6,0c0-14.68,0-28.83,0-43.26
					c-14.8,0-28.99,0-43.6,0C503.93,188.06,503.93,202.2,503.93,216.69z M296.59,173.61c0,14.77,0,28.88,0,42.88
					c14.95,0,29.11,0,43.57,0c0-14.62,0-28.52,0-42.88C324.92,173.61,310.75,173.61,296.59,173.61z M296.39,423.64
					c14.87,0,29.26,0,43.69,0c0-14.64,0-28.55,0-42.99c-14.7,0-28.9,0-43.69,0C296.39,395.08,296.39,409.25,296.39,423.64z"/>
			</g>
			<g>
				<circle class="st1" cx="420.95" cy="297.64" r="86.28"/>
			</g>
		</g>
		<g>
			<g>
				<path class="st1" d="M325.78,38.8H162.1v163.68C190.03,126.78,250.08,66.73,325.78,38.8z"/>
			</g>
		</g>
		<path class="st2" d="M420.95,38.8c-142.96,0-258.84,115.89-258.84,258.84h85.55c0,4.53,0.5,8.94,0.73,13.41v-13.41
			c0-95.3,77.26-172.56,172.56-172.56c95.3,0,172.56,77.26,172.56,172.56S516.25,470.2,420.95,470.2H265.64v86.28h155.31
			c142.95,0,258.84-115.89,258.84-258.84C679.79,154.69,563.9,38.8,420.95,38.8z"/>
		<path class="st3" d="M248.38,297.64h-0.73c0,4.53,0.5,8.94,0.73,13.41V297.64z"/>
		<g>
			<path class="st1" d="M463.72,42.62c-13.94-2.32-28.17-3.83-42.77-3.83c-142.95,0-258.84,115.89-258.84,258.84v258.84h86.28
				V311.05c-0.24-4.48-0.73-8.88-0.73-13.41C247.65,169.29,341.17,63.05,463.72,42.62z"/>
		</g>
	</g>
</g>
</svg>
