<?xml version="1.0" encoding="utf-8"?>
<!-- Generator: Adobe Illustrator 23.0.0, SVG Export Plug-In . SVG Version: 6.00 Build 0)  -->
<svg version="1.1" id="Layer_1" xmlns="http://www.w3.org/2000/svg" xmlns:xlink="http://www.w3.org/1999/xlink" x="0px" y="0px"
	 viewBox="0 0 841.89 235.79" style="enable-background:new 0 0 841.89 235.79;" xml:space="preserve">
<style type="text/css">
	.st0{clip-path:url(#SVGID_2_);fill:#C6C6C5;}
	.st1{fill:#0E3243;}
	.st2{fill:#ED1C24;}
	.st3{fill:#F89938;}
	.st4{clip-path:url(#SVGID_4_);fill:#C6C6C5;}
	.st5{clip-path:url(#SVGID_6_);fill:#C6C6C5;}
</style>
<g>
	<g>
		<g>
			<g>
				<defs>
					<path id="SVGID_1_" d="M122.79,65.17c-29.12,0-52.73,23.61-52.73,52.73c0,29.12,23.61,52.73,52.73,52.73
						s52.73-23.61,52.73-52.73C175.52,88.77,151.91,65.17,122.79,65.17z M122.79,152.05c-18.86,0-34.16-15.29-34.16-34.16
						c0-18.86,15.29-34.16,34.16-34.16c18.86,0,34.16,15.29,34.16,34.16C156.95,136.76,141.66,152.05,122.79,152.05z"/>
				</defs>
				<clipPath id="SVGID_2_">
					<use xlink:href="#SVGID_1_"  style="overflow:visible;"/>
				</clipPath>
				<path class="st0" d="M140.58,115.38c1.54,0,3.07,0,4.92,0c0,1.91,0,3.61,0,5.49c1.79,0,3.28,0,5.17,0c0-3.52,0-7,0-10.47
					l-0.09,0.09c1.55,0,3.09,0,4.87,0c0.11-1.71,0.2-3.21,0.31-4.87c1.53,0,2.95,0,4.69,0c0,1.43,0,2.93,0,4.62
					c2.02,0,3.72,0,5.65,0c0.08-1.44,0.15-2.87,0.25-4.54c1.47,0,2.96,0,4.82,0c0,3.19,0,6.47,0,9.76l0.09-0.09
					c-5.07,0-10.14,0-15.43,0c0,1.91,0,3.61,0,5.52c1.48,0.1,2.98,0.21,4.68,0.33c0,1.53,0,2.95,0,4.69c1.91,0,3.61,0,5.67,0
					c0,3.6,0,6.88,0,10.16l0.1-0.09c-1.83,0-3.65,0-5.55,0c-0.11,1.89-0.19,3.39-0.28,4.99c-1.8,0-3.34,0-4.87,0l0.1,0.09
					c0-4.86,0-9.73,0-14.82c-3.35,0-6.5,0-10.1,0c0,1.59,0,3.21,0,4.83l0.1-0.09c-1.59,0-3.17,0-5.08,0c0,1.91,0,3.5,0,5.08
					l0.09-0.09c-3.36,0-6.72,0-10.08,0l0.09,0.09c0-3.29,0-6.57,0-10.08c-5.32,0-10.2,0-15.07,0l0.1,0.09c0-3.41,0-6.83,0-10.46
					c1.64-0.12,3.14-0.22,4.84-0.35c0.07-1.51,0.13-2.93,0.21-4.69c1.5,0,2.99,0,4.72,0c0.11-1.81,0.21-3.31,0.31-4.97
					c1.53,0,2.95,0,4.69,0c0,1.43,0,2.92,0,4.62c1.82,0,3.31,0,5.02,0c0.08-1.44,0.16-2.86,0.25-4.54c1.47,0,2.96,0,4.92,0
					c0,3.19,0,6.47,0,9.76c-1.62,0-3.23,0-4.85,0c0,3.7,0,7.05,0,10.36c1.69,0,3.18,0,4.77,0
					C140.58,122.19,140.58,118.79,140.58,115.38z M125.68,120.87c1.77,0,3.26,0,4.74,0c0-1.9,0-3.6,0-5.2c-1.72,0-3.21,0-4.74,0
					C125.68,117.47,125.68,119.02,125.68,120.87z M141.08,65.86c11.64,0,23.03,0,34.62,0c0,11.56,0,22.95,0,34.48
					c-11.56,0-22.97,0-34.62,0C141.08,88.93,141.08,77.55,141.08,65.86z M170.97,70.8c-8.39,0-16.6,0-24.89,0
					c0,8.31,0,16.37,0,24.48c8.4,0,16.63,0,24.89,0C170.97,86.97,170.97,78.92,170.97,70.8z M70.74,100.34c0-11.67,0-22.98,0-34.47
					c11.54,0,22.92,0,34.5,0c0,11.56,0,22.93,0,34.47C93.7,100.34,82.31,100.34,70.74,100.34z M100.5,70.7c-8.41,0-16.57,0-24.93,0
					c0,8.25,0,16.39,0,24.57c8.39,0,16.61,0,24.93,0C100.5,87.03,100.5,79.05,100.5,70.7z M70.81,136.09c11.55,0,22.86,0,34.4,0
					c0,11.48,0,22.85,0,34.47c-11.43,0-22.8,0-34.4,0C70.81,159.15,70.81,147.78,70.81,136.09z M100.5,141.1
					c-8.45,0-16.61,0-24.94,0c0,8.27,0,16.42,0,24.58c8.43,0,16.67,0,24.94,0C100.5,157.45,100.5,149.47,100.5,141.1z M105.7,115.49
					c-5.02,0-10.03,0-15.05,0l0.09-0.09c0,1.82,0,3.64,0,5.54c-1.91,0.11-3.4,0.19-5,0.28c0,1.79,0,3.33,0,4.86l-0.09-0.09
					c1.62,0,3.23,0,4.91,0c0.11,1.93,0.2,3.42,0.31,5.21c6.75,0,13.22,0,19.89,0c0,3.39,0,6.47,0,9.64c1.71,0,3.19,0,4.76,0
					c0.1-1.67,0.19-3.17,0.29-4.85c3.48,0,6.68,0,9.87,0l-0.09,0.1c0-1.54,0-3.08,0-4.94c-3.27,0-6.42,0-9.99,0
					c0-1.91,0-3.53,0-5.14l0.1,0.09c-6.59,0-13.18,0-19.86,0c0-1.85,0-3.33,0-5.13c3.33,0,6.48,0,9.76,0c0-2.07,0-3.81,0-5.56
					L105.7,115.49z M120.7,80.52c0-1.55,0-3.1,0-4.97c-3.36,0-6.52,0-9.86,0c0-1.74,0-3.15,0-4.91c3.07,0,6.24,0,9.62,0
					c0.12-1.81,0.22-3.31,0.33-4.96c4.84,0,9.58,0,14.57,0c0,8.08,0,16.22,0,24.73c-1.55,0-3.17,0-4.78,0l0.09,0.1
					c0-3.29,0-6.57,0-10.08c-3.66,0-6.87,0-10.08,0L120.7,80.52z M130.5,70.64c-1.78,0-3.2,0-4.68,0c0,1.66,0,3.16,0,4.63
					c1.7,0,3.19,0,4.68,0C130.5,73.62,130.5,72.2,130.5,70.64z M140.58,160.8c-1.58,0-3.07,0-4.77,0c0-1.45,0-2.94,0-4.75
					c1.62,0,3.24,0,4.85,0c-0.03-5.02-0.07-10.04-0.1-15.07l0.1,0.09c-1.54,0-3.08,0-4.94,0c0,3.27,0,6.42,0,9.99
					c-1.91,0-3.53,0-5.14,0l0.1-0.09c0,6.61,0,13.23,0,19.76c1.86,0,3.35,0,4.83,0c0.09-1.67,0.16-3.09,0.23-4.55
					c1.71,0,3.2,0,5.02,0c0,1.69,0,3.19,0,4.63c1.75,0,3.17,0,4.69,0c0.11-1.66,0.21-3.16,0.33-4.97c1.71,0,3.21,0,4.64,0
					c0-1.75,0-3.16,0-4.7c-1.66-0.1-3.16-0.2-4.87-0.31c0-1.78,0-3.32,0-4.87l0.09,0.09c-1.69-0.04-3.38-0.07-5.07-0.11
					C140.58,157.5,140.58,159.04,140.58,160.8z M130.58,151.06c0-1.54,0-3.07,0-4.87c-1.61-0.09-3.1-0.18-4.99-0.28
					c0-1.7,0-3.31,0-4.92l0.09,0.1c-1.62,0-3.24,0-5.07,0c0,1.79,0,3.21,0,4.96c-3.37,0-6.54,0-9.74,0c0,8.49,0,16.63,0,24.79
					c1.63,0,3.04,0,4.79,0c0-6.63,0-13.12,0-19.63c1.83,0,3.33,0,5.14,0c0,1.7,0,3.2,0,4.61c1.75,0,3.17,0,4.69,0
					c0.1-1.67,0.19-3.17,0.29-4.85c1.8,0,3.35,0,4.89,0L130.58,151.06z M90.64,115.49c0-1.62,0-3.24,0-5.19c1.9,0,3.39,0,4.86,0
					c0-1.74,0-3.16,0-4.66c-8.51,0-16.86,0-25.19,0c0,1.68,0,3.17,0,4.87c1.65,0,3.06,0,4.61,0c0.12,1.7,0.22,3.21,0.32,4.69
					c1.7,0,3.19,0,4.89,0c0-1.64,0-3.06,0-4.6c1.92,0,3.62,0,5.44,0c0.1,1.66,0.19,3.17,0.29,4.79c1.79,0,3.34,0,4.88,0
					C90.74,115.4,90.64,115.49,90.64,115.49z M171.25,151.06c-1.54,0-3.08,0-4.89,0c-0.09-1.67-0.18-3.16-0.28-4.99
					c-3.56,0-7.04,0-10.52,0l0.1-0.09c0,3.26,0,6.52,0,9.87c1.79,0.12,3.28,0.22,4.84,0.32c0.1,1.7,0.18,3.19,0.27,4.78
					c2.01,0,3.75,0,5.48,0l-0.09,0.09c0-1.61,0-3.22,0-4.91c1.91-0.11,3.41-0.19,5-0.28c0-1.8,0-3.34,0-4.87L171.25,151.06z
					 M166.25,160.95c0,1.62,0,3.25,0,5.18c-3.78,0-7.16,0-10.47,0c0,1.75,0,3.17,0,4.65c5.19,0,10.22,0,15.3,0
					c0.1-1.7,0.19-3.2,0.29-4.9c1.73,0,3.15,0,4.61,0c0-1.71,0-3.19,0-4.84c-3.41,0-6.62,0-9.83,0
					C166.15,161.04,166.25,160.95,166.25,160.95z M105.6,115.4c1.62,0,3.23,0,4.92,0c0.1-1.85,0.19-3.35,0.27-4.83
					c1.78-0.12,3.28-0.22,4.9-0.33c-0.08-1.85-0.15-3.4-0.22-4.94c0,0,0.11,0.09,0.1,0.09c-4.94,0-9.87,0-14.72,0
					c0,1.98,0,3.39,0,4.92c1.67,0.1,3.17,0.18,4.84,0.28c0,1.81,0,3.36,0,4.91C105.7,115.49,105.6,115.4,105.6,115.4z M115.6,90.42
					c1.54,0,3.09,0,4.99,0c0-3.42,0-6.7,0-9.99l0.1,0.09c-3.27,0-6.53,0-9.83,0c0,1.8,0,3.28,0,4.83c1.69,0.09,3.18,0.18,4.84,0.27
					c0,1.82,0,3.36,0,4.89L115.6,90.42z M85.74,126.08c-3.47,0-6.95,0-10.45,0c0,1.81,0,3.28,0,4.74c3.56,0,6.9,0,10.36,0
					c0-1.75,0-3.29,0-4.83C85.65,125.98,85.74,126.08,85.74,126.08z M171.25,140.98c0,3.36,0,6.72,0,10.08c0,0-0.1-0.09-0.1-0.09
					c1.61,0,3.22,0,4.83,0c0-3.5,0-6.64,0-9.89c-1.74,0-3.28,0-4.82,0L171.25,140.98z M115.6,100.49c0-3.36,0-6.72,0-10.08
					c0,0,0.1,0.09,0.1,0.09c-1.61,0-3.22,0-4.83,0c0,3.5,0,6.64,0,9.89c1.74,0,3.28,0,4.82,0L115.6,100.49z M171.24,115.38
					c0,1.82,0,3.63,0,5.46c1.82,0,3.29,0,4.73,0c0-1.89,0-3.58,0-5.37c-1.75,0-3.29,0-4.82,0
					C171.15,115.47,171.24,115.38,171.24,115.38z M145.66,130.99c0,1.69,0,3.39,0,5.08l-0.09-0.1c1.61,0,3.22,0,4.81,0
					c0-1.82,0-3.3,0-4.9c-1.75,0-3.28,0-4.82,0L145.66,130.99z M125.59,140.98c1.54,0,3.08,0,4.99,0c0-1.75,0-3.37,0-4.99l0.09,0.09
					c-1.69,0-3.39,0-5.08,0l0.09-0.1c0,1.7,0,3.4,0,5.1L125.59,140.98z M145.66,136.08c-1.69,0-3.39,0-5.08,0l0.09-0.09
					c0,1.69,0,3.39,0,5.08c0,0-0.1-0.09-0.1-0.09c1.62,0,3.25,0,5,0c0-1.91,0-3.46,0-5L145.66,136.08z M166.26,135.99
					c0,1.54,0,3.08,0,4.99c1.75,0,3.37,0,4.99,0l-0.09,0.1c0-1.62,0-3.25,0-5c-1.91,0-3.46,0-5,0L166.26,135.99z M155.56,146.07
					c0-1.69,0-3.39,0-5.08l0.1,0.09c-1.61,0-3.23,0-4.82,0c0,1.83,0,3.31,0,4.9c1.75,0,3.29,0,4.82,0L155.56,146.07z M130.68,90.51
					c-1.54,0-3.08,0-4.99,0c0,1.75,0,3.37,0,4.99l-0.09-0.1c1.69,0,3.38,0,5.07,0l-0.09,0.09c0.01-1.69,0.01-3.39,0.02-5.08
					L130.68,90.51z M125.68,95.5c-1.54,0-3.08,0-4.99,0c0,1.75,0,3.37,0,4.99l-0.09-0.1c1.62,0,3.24,0,4.99,0c0-1.91,0-3.45,0-4.99
					L125.68,95.5z M130.66,95.4c0,1.61,0,3.22,0,4.84c1.82,0,3.3,0,4.73,0c0-1.69,0-3.16,0-4.74c-1.76,0-3.29,0-4.82,0
					C130.57,95.49,130.66,95.4,130.66,95.4z M145.56,155.98c1.61,0,3.22,0,4.84,0c0-1.82,0-3.3,0-4.73c-1.68,0-3.16,0-4.74,0
					c0,1.76,0,3.29,0,4.82C145.65,156.07,145.56,155.98,145.56,155.98z M120.69,100.49c-1.69,0-3.39,0-5.08,0l0.09-0.1
					c-0.04,1.66-0.08,3.33-0.12,5c0,0-0.1-0.09-0.1-0.09c1.68,0,3.37,0,5.12,0c0-1.86,0-3.39,0-4.91L120.69,100.49z M120.86,165.75
					c1.69,0,3.17,0,4.61,0c0-1.64,0-3.05,0-4.6c-1.56,0-2.96,0-4.61,0C120.86,162.86,120.86,164.34,120.86,165.75z M150.57,110.5
					c0-1.61,0-3.22,0-4.84c-1.82,0-3.3,0-4.73,0c0,1.69,0,3.16,0,4.74c1.76,0,3.29,0,4.82,0C150.67,110.4,150.57,110.5,150.57,110.5
					z M150.97,90.41c5.02,0,9.84,0,14.8,0c0-4.98,0-9.79,0-14.69c-5.02,0-9.84,0-14.8,0C150.97,80.69,150.97,85.49,150.97,90.41z
					 M80.57,75.79c0,5.02,0,9.8,0,14.56c5.08,0,9.88,0,14.79,0c0-4.96,0-9.68,0-14.56C90.19,75.79,85.38,75.79,80.57,75.79z
					 M80.5,160.68c5.05,0,9.93,0,14.83,0c0-4.97,0-9.69,0-14.6c-4.99,0-9.81,0-14.83,0C80.5,150.98,80.5,155.79,80.5,160.68z"/>
			</g>
			<g>
				<circle class="st1" cx="122.79" cy="117.9" r="29.29"/>
			</g>
		</g>
		<g>
			<g>
				<path class="st1" d="M90.48,30.01H34.91v55.57C44.39,59.88,64.78,39.49,90.48,30.01z"/>
			</g>
		</g>
		<path class="st2" d="M122.79,30.01c-48.54,0-87.88,39.35-87.88,87.88h29.05c0,1.54,0.17,3.03,0.25,4.55v-4.55
			c0-32.36,26.23-58.59,58.59-58.59c32.36,0,58.59,26.23,58.59,58.59s-26.23,58.59-58.59,58.59H70.06v29.29h52.73
			c48.54,0,87.88-39.35,87.88-87.88C210.68,69.36,171.33,30.01,122.79,30.01z"/>
		<path class="st3" d="M64.2,117.9h-0.25c0,1.54,0.17,3.03,0.25,4.55V117.9z"/>
		<g>
			<path class="st1" d="M137.31,31.31c-4.73-0.79-9.56-1.3-14.52-1.3c-48.54,0-87.88,39.35-87.88,87.88v87.88H64.2v-83.33
				c-0.08-1.52-0.25-3.01-0.25-4.55C63.95,74.32,95.71,38.25,137.31,31.31z"/>
		</g>
	</g>
	<g>
		<g>
			<path class="st1" d="M239.97,153.14V77.18h22.01l18.05,58.09h0.34l20.54-58.09h23v75.96h-16.06v-35.95c0-1.7,0.03-3.65,0.08-5.87
				c0.05-2.21,0.08-8.1,0.08-17.67l-19.49,59.49h-16.24l-18.35-59.59h-0.48c1.63,12.12,2.45,20.21,2.45,24.27v35.33H239.97z"/>
		</g>
		<g>
			<path class="st1" d="M332.81,95.05h17.42l11.01,32.68c0.94,2.84,1.58,6.2,1.93,10.08h0.31c0.38-3.56,1.13-6.92,2.24-10.08
				l10.8-32.68h17.06l-24.67,65.51c-2.26,6.06-5.48,10.6-9.67,13.61c-4.19,3.01-9.09,4.52-14.68,4.52c-2.75,0-5.44-0.3-8.08-0.88
				v-12.57c1.91,0.45,4,0.67,6.26,0.67c2.82,0,5.28-0.86,7.38-2.57c2.1-1.71,3.75-4.31,4.93-7.77l0.94-2.86L332.81,95.05z"/>
		</g>
		<g>
			<path class="st1" d="M404.88,153.14V77.18h16.17v75.96H404.88z"/>
		</g>
		<g>
			<path class="st1" d="M441.96,153.14V77.18h23.71c12.33,0,21.9,3.27,28.72,9.81c6.82,6.54,10.23,15.67,10.23,27.4
				c0,12.52-3.54,22.11-10.62,28.76c-7.08,6.66-17.29,9.99-30.65,9.99H441.96z M458.13,139.73h6.94c15.58,0,23.37-8.31,23.37-24.94
				c0-16.28-7.23-24.42-21.7-24.42h-8.61V139.73z"/>
		</g>
		<path class="st2" d="M514.09,85.08v-7.9h57.17v7.9h-24.15v68.06h-8.87V85.08H514.09z"/>
		<path class="st2" d="M572.5,124.56c0-9.26,2.32-16.48,6.97-21.65s11.1-7.76,19.35-7.76c7.97,0,14.31,2.65,19.01,7.94
			c4.7,5.29,7.05,12.45,7.05,21.47c0,9.3-2.34,16.56-7.02,21.78c-4.68,5.22-11.15,7.83-19.4,7.83c-5.1,0-9.62-1.2-13.57-3.59
			c-3.96-2.39-7.01-5.83-9.16-10.3C573.57,135.8,572.5,130.57,572.5,124.56z M581.36,124.56c0,7.29,1.47,12.85,4.39,16.66
			c2.92,3.82,7.22,5.73,12.9,5.73s9.99-1.9,12.93-5.7c2.94-3.8,4.41-9.36,4.41-16.69c0-7.26-1.47-12.77-4.41-16.53
			c-2.94-3.77-7.29-5.65-13.03-5.65c-5.68,0-9.96,1.86-12.85,5.57C582.81,111.67,581.36,117.2,581.36,124.56z"/>
		<path class="st2" d="M641.91,153.14V72.3h8.66v42.86c0,1.9-0.14,4.85-0.42,8.83h0.42c1.5-2.11,3.78-4.89,6.84-8.32l18.47-19.48
			h10.28l-23.16,24.26l24.78,32.68h-10.49l-20.19-26.91l-6.52,5.61v21.3H641.91z"/>
		<path class="st2" d="M694.38,125.14c0-9.18,2.26-16.47,6.79-21.87c4.53-5.4,10.6-8.11,18.23-8.11c7.14,0,12.79,2.35,16.95,7.04
			c4.16,4.7,6.24,10.89,6.24,18.58v5.45h-39.33c0.18,6.68,1.87,11.76,5.09,15.22s7.76,5.2,13.61,5.2c6.14,0,12.2-1.28,18.2-3.85
			v7.69c-3.05,1.32-5.94,2.26-8.66,2.83c-2.72,0.57-6,0.86-9.85,0.86c-8.43,0-15.08-2.57-19.95-7.69S694.38,134.25,694.38,125.14z
			 M703.45,119.21h29.94c0-5.44-1.22-9.6-3.66-12.49c-2.44-2.89-5.93-4.34-10.45-4.34c-4.6,0-8.26,1.49-11,4.47
			C705.55,109.83,703.94,113.95,703.45,119.21z"/>
		<path class="st2" d="M759.2,153.14V96.2h7.04l1.41,7.69h0.42c1.77-2.77,4.26-4.92,7.46-6.44c3.2-1.53,6.77-2.29,10.7-2.29
			c6.88,0,12.06,1.65,15.54,4.96c3.48,3.3,5.21,8.6,5.21,15.87v37.14h-8.66v-36.91c0-4.65-1.06-8.12-3.18-10.41
			c-2.12-2.29-5.45-3.43-9.97-3.43c-5.98,0-10.36,1.61-13.15,4.84c-2.78,3.23-4.17,8.56-4.17,15.98v29.93H759.2z"/>
	</g>
</g>
</svg>
